<svg xmlns="http://www.w3.org/2000/svg" width="24" height="24"  fill-rule="evenodd" xmlns:v="https://vecta.io/nano"><circle fill="#1e2026" cx="12" cy="12" r="12"/><g fill="#f3ba2f" fill-rule="nonzero"><path d="M8.893 10.723L12 7.616l3.109 3.109 1.808-1.808L12 4 7.085 8.915l1.808 1.808M4 12l1.808-1.808L7.616 12l-1.808 1.808L4 12zm4.893 1.277L12 16.384l3.109-3.109 1.808 1.808L12 20l-4.918-4.918 1.811-1.806m7.491-1.276l1.808-1.808L20 12.001l-1.808 1.808-1.808-1.808z"/><path d="M13.834 11.999h.001L12 10.164 10.164 12l.003.003L12 13.836 13.836 12l-.002-.001"/></g></svg>