<svg xmlns="http://www.w3.org/2000/svg" width="24" height="24"><path d="M10.49 2a1 1 0 0 0-.98.809l-.334 1.715c-.821.31-1.58.744-2.246 1.291l-1.645-.566a1 1 0 0 0-1.191.445L2.586 8.307a1 1 0 0 0 .209 1.256l1.318 1.146A8.01 8.01 0 0 0 4 12a8.01 8.01 0 0 0 .113 1.291l-1.318 1.146a1 1 0 0 0-.209 1.256l1.508 2.613a1 1 0 0 0 1.191.447l1.645-.566c.666.547 1.426.979 2.246 1.289l.334 1.715a1 1 0 0 0 .98.809h3.02a1 1 0 0 0 .98-.809l.334-1.715c.821-.31 1.58-.744 2.246-1.291l1.645.566a1 1 0 0 0 1.191-.445l1.508-2.615a1 1 0 0 0-.209-1.254l-1.318-1.146A8.01 8.01 0 0 0 20 12a8.01 8.01 0 0 0-.113-1.291l1.318-1.146a1 1 0 0 0 .209-1.256l-1.508-2.613a1 1 0 0 0-1.191-.447l-1.645.566c-.666-.547-1.426-.979-2.246-1.289l-.334-1.715A1 1 0 0 0 13.51 2h-3.02zM12 8a4 4 0 1 1 0 8 4 4 0 1 1 0-8z" fill="#341f10" fill-rule="nonzero"/><defs /></svg>
