<svg xmlns="http://www.w3.org/2000/svg" width="27" height="32"  fill-rule="evenodd" xmlns:v="https://vecta.io/nano"><path d="M13.375 1c3.193 0 6.088.404 8.212 1.049 1.169.355 2.115.79 2.781 1.263.906.644 1.328 1.385 1.377 2.105h0l.005 21.019c0 .738-.378 1.495-1.258 2.16-.648.49-1.593.944-2.775 1.314-2.135.669-5.084 1.089-8.342 1.089-3.193 0-6.088-.404-8.212-1.049-1.169-.355-2.115-.79-2.781-1.263-.906-.644-1.328-1.385-1.377-2.105h0L1 5.525c.051-.745.473-1.494 1.351-2.145.662-.491 1.603-.938 2.766-1.303C7.247 1.41 10.16 1 13.375 1h0z" stroke="#472d1d" stroke-width="2" fill="#d59361"/><ellipse fill="#ffc69b" cx="13.375" cy="5.564" rx="11.375" ry="3.564"/><g fill="#4f2c13"><ellipse cx="10.089" cy="14.727" rx="1.011" ry="2.036"/><ellipse cx="16.661" cy="14.727" rx="1.011" ry="2.036"/></g><g fill="#ffb2b2"><ellipse opacity=".962" cx="7.561" cy="19.818" rx="1.517" ry="1.527"/><ellipse opacity=".962" cx="19.189" cy="19.818" rx="1.517" ry="1.527"/></g></svg>