<svg xmlns="http://www.w3.org/2000/svg" width="29.482" height="29.482" viewBox="0 0 29.482 29.482"><defs><style>.a{fill:#0d2146;}</style></defs><path class="a" d="M26.323,2.25H3.159A3.159,3.159,0,0,0,0,5.409V28.573a3.159,3.159,0,0,0,3.159,3.159h9.032V21.709H8.045V16.991h4.146V13.4c0-4.09,2.435-6.349,6.164-6.349a25.117,25.117,0,0,1,3.654.319v4.014H19.951a2.359,2.359,0,0,0-2.66,2.549v3.063h4.526l-.724,4.718h-3.8V31.732h9.032a3.159,3.159,0,0,0,3.159-3.159V5.409A3.159,3.159,0,0,0,26.323,2.25Z" transform="translate(0 -2.25)"/></svg>