<svg xmlns="http://www.w3.org/2000/svg" width="27.685" height="27.685" viewBox="0 0 27.685 27.685"><defs><style>.a{fill:#293240;}</style></defs><path class="a" d="M0,21.916v2.309c0,1.909,4.65,3.461,10.382,3.461s10.382-1.552,10.382-3.461V21.916c-2.233,1.574-6.316,2.309-10.382,2.309S2.233,23.489,0,21.916ZM17.3,6.921c5.732,0,10.382-1.552,10.382-3.461S23.035,0,17.3,0,6.921,1.552,6.921,3.461,11.572,6.921,17.3,6.921ZM0,16.243v2.79c0,1.909,4.65,3.461,10.382,3.461s10.382-1.552,10.382-3.461v-2.79c-2.233,1.838-6.321,2.79-10.382,2.79S2.233,18.082,0,16.243Zm22.494.595c3.1-.6,5.191-1.714,5.191-3V11.534A13.279,13.279,0,0,1,22.494,13.4ZM10.382,8.652C4.65,8.652,0,10.587,0,12.977S4.65,17.3,10.382,17.3s10.382-1.936,10.382-4.326S16.114,8.652,10.382,8.652ZM22.24,11.7c3.244-.584,5.445-1.73,5.445-3.044V6.343C25.766,7.7,22.467,8.43,19,8.6A6.055,6.055,0,0,1,22.24,11.7Z" transform="translate(0 0)"/></svg>