<svg xmlns="http://www.w3.org/2000/svg" width="29.482" height="29.482" viewBox="0 0 29.482 29.482"><defs><style>.a{fill:#0d2146;}</style></defs><path class="a" d="M26.323,2.25H3.159A3.16,3.16,0,0,0,0,5.409V28.573a3.16,3.16,0,0,0,3.159,3.159H26.323a3.16,3.16,0,0,0,3.159-3.159V5.409A3.16,3.16,0,0,0,26.323,2.25ZM23.105,12.7c.013.184.013.375.013.559a12.2,12.2,0,0,1-12.28,12.28A12.223,12.223,0,0,1,4.212,23.6a9.093,9.093,0,0,0,1.04.053,8.653,8.653,0,0,0,5.357-1.843,4.322,4.322,0,0,1-4.034-2.994,4.652,4.652,0,0,0,1.948-.079A4.316,4.316,0,0,1,5.067,14.5v-.053A4.313,4.313,0,0,0,7.015,15,4.307,4.307,0,0,1,5.094,11.4a4.262,4.262,0,0,1,.586-2.178,12.255,12.255,0,0,0,8.9,4.514A4.325,4.325,0,0,1,21.94,9.8a8.457,8.457,0,0,0,2.738-1.04,4.3,4.3,0,0,1-1.9,2.376,8.589,8.589,0,0,0,2.488-.671A9.085,9.085,0,0,1,23.105,12.7Z" transform="translate(0 -2.25)"/></svg>