<svg xmlns="http://www.w3.org/2000/svg" width="30.67" height="30.67" viewBox="0 0 30.67 30.67"><defs><style>.a{fill:#fdc113;}</style></defs><path class="a" d="M20.8,11.9a8.257,8.257,0,1,0,8.257,8.257A8.267,8.267,0,0,0,20.8,11.9Zm0,14.156a5.9,5.9,0,1,1,5.9-5.9A5.9,5.9,0,0,1,20.8,26.053Zm0-16.515a1.18,1.18,0,0,0,1.18-1.18V6a1.18,1.18,0,1,0-2.359,0V8.359A1.18,1.18,0,0,0,20.8,9.539Zm0,21.233a1.18,1.18,0,0,0-1.18,1.18v2.359a1.18,1.18,0,1,0,2.359,0V31.952A1.18,1.18,0,0,0,20.8,30.772Zm9.174-18.124,1.668-1.668a1.18,1.18,0,0,0-1.668-1.668L28.3,10.979a1.18,1.18,0,1,0,1.668,1.668ZM11.624,27.663,9.955,29.331A1.179,1.179,0,0,0,11.624,31l1.668-1.668a1.18,1.18,0,0,0-1.668-1.668Zm-1.442-7.508A1.18,1.18,0,0,0,9,18.976H6.642a1.18,1.18,0,1,0,0,2.359H9A1.18,1.18,0,0,0,10.181,20.155Zm24.772-1.18H32.594a1.18,1.18,0,0,0,0,2.359h2.359a1.18,1.18,0,0,0,0-2.359ZM11.622,12.647a1.18,1.18,0,0,0,1.668-1.668L11.622,9.311a1.18,1.18,0,0,0-1.668,1.668ZM29.974,27.662a1.18,1.18,0,1,0-1.668,1.668L29.974,31a1.179,1.179,0,1,0,1.668-1.668Z" transform="translate(-5.463 -4.82)"/></svg>